<mxfile host="app.diagrams.net" agent="Mozilla/5.0 (Windows NT 10.0; Win64; x64) AppleWebKit/537.36 (KHTML, like Gecko) Chrome/131.0.0.0 Safari/537.36" version="26.0.4">
  <diagram name="Страница — 1" id="kemYDvAUfgzzPdAbyNu1">
    <mxGraphModel dx="1050" dy="569" grid="1" gridSize="10" guides="1" tooltips="1" connect="1" arrows="1" fold="1" page="1" pageScale="1" pageWidth="827" pageHeight="1169" math="0" shadow="0">
      <root>
        <mxCell id="0" />
        <mxCell id="1" parent="0" />
        <mxCell id="VriNDaEBPL0u4JMVygCb-1" value="Eat from center" style="ellipse;whiteSpace=wrap;html=1;aspect=fixed;fillColor=#f0a30a;strokeColor=#BD7000;fontColor=#000000;fontFamily=Comic Sans MS;" vertex="1" parent="1">
          <mxGeometry x="210" y="220" width="80" height="80" as="geometry" />
        </mxCell>
        <mxCell id="VriNDaEBPL0u4JMVygCb-15" style="edgeStyle=orthogonalEdgeStyle;rounded=0;orthogonalLoop=1;jettySize=auto;html=1;entryX=0.5;entryY=0;entryDx=0;entryDy=0;fillColor=#f0a30a;strokeColor=#BD7000;fontFamily=Comic Sans MS;" edge="1" parent="1" source="VriNDaEBPL0u4JMVygCb-2" target="VriNDaEBPL0u4JMVygCb-6">
          <mxGeometry relative="1" as="geometry" />
        </mxCell>
        <mxCell id="VriNDaEBPL0u4JMVygCb-2" value="Score into basket" style="ellipse;whiteSpace=wrap;html=1;aspect=fixed;fillColor=#f0a30a;strokeColor=#BD7000;fontColor=#000000;fontFamily=Comic Sans MS;" vertex="1" parent="1">
          <mxGeometry x="380" y="60" width="80" height="80" as="geometry" />
        </mxCell>
        <mxCell id="VriNDaEBPL0u4JMVygCb-3" value="Eat from human player" style="ellipse;whiteSpace=wrap;html=1;aspect=fixed;fillColor=#f0a30a;strokeColor=#BD7000;fontColor=#000000;fontFamily=Comic Sans MS;" vertex="1" parent="1">
          <mxGeometry x="550" y="220" width="80" height="80" as="geometry" />
        </mxCell>
        <mxCell id="VriNDaEBPL0u4JMVygCb-14" style="edgeStyle=orthogonalEdgeStyle;rounded=0;orthogonalLoop=1;jettySize=auto;html=1;fillColor=#f0a30a;strokeColor=#BD7000;fontFamily=Comic Sans MS;" edge="1" parent="1" source="VriNDaEBPL0u4JMVygCb-4" target="VriNDaEBPL0u4JMVygCb-6">
          <mxGeometry relative="1" as="geometry" />
        </mxCell>
        <mxCell id="VriNDaEBPL0u4JMVygCb-4" value="Score on axis" style="ellipse;whiteSpace=wrap;html=1;aspect=fixed;fillColor=#f0a30a;strokeColor=#BD7000;fontColor=#000000;fontFamily=Comic Sans MS;" vertex="1" parent="1">
          <mxGeometry x="380" y="370" width="80" height="80" as="geometry" />
        </mxCell>
        <mxCell id="VriNDaEBPL0u4JMVygCb-20" style="edgeStyle=orthogonalEdgeStyle;rounded=0;orthogonalLoop=1;jettySize=auto;html=1;fillColor=#f0a30a;strokeColor=#BD7000;fontFamily=Comic Sans MS;" edge="1" parent="1" source="VriNDaEBPL0u4JMVygCb-6" target="VriNDaEBPL0u4JMVygCb-2">
          <mxGeometry relative="1" as="geometry" />
        </mxCell>
        <mxCell id="VriNDaEBPL0u4JMVygCb-21" style="edgeStyle=orthogonalEdgeStyle;rounded=0;orthogonalLoop=1;jettySize=auto;html=1;entryX=0.5;entryY=0;entryDx=0;entryDy=0;fillColor=#f0a30a;strokeColor=#BD7000;fontFamily=Comic Sans MS;" edge="1" parent="1" source="VriNDaEBPL0u4JMVygCb-6" target="VriNDaEBPL0u4JMVygCb-4">
          <mxGeometry relative="1" as="geometry" />
        </mxCell>
        <mxCell id="VriNDaEBPL0u4JMVygCb-6" value="Move" style="ellipse;whiteSpace=wrap;html=1;aspect=fixed;fillColor=#f0a30a;strokeColor=#BD7000;fontColor=#000000;fontFamily=Comic Sans MS;" vertex="1" parent="1">
          <mxGeometry x="380" y="220" width="80" height="80" as="geometry" />
        </mxCell>
        <mxCell id="VriNDaEBPL0u4JMVygCb-23" value="" style="curved=1;endArrow=classic;html=1;rounded=0;entryX=0;entryY=0;entryDx=0;entryDy=0;fillColor=#f0a30a;strokeColor=#BD7000;fontFamily=Comic Sans MS;" edge="1" parent="1" source="VriNDaEBPL0u4JMVygCb-1" target="VriNDaEBPL0u4JMVygCb-6">
          <mxGeometry width="50" height="50" relative="1" as="geometry">
            <mxPoint x="290" y="260" as="sourcePoint" />
            <mxPoint x="340" y="210" as="targetPoint" />
            <Array as="points">
              <mxPoint x="290" y="190" />
            </Array>
          </mxGeometry>
        </mxCell>
        <mxCell id="VriNDaEBPL0u4JMVygCb-25" value="" style="curved=1;endArrow=classic;html=1;rounded=0;entryX=1;entryY=1;entryDx=0;entryDy=0;exitX=0;exitY=1;exitDx=0;exitDy=0;fillColor=#f0a30a;strokeColor=#BD7000;fontFamily=Comic Sans MS;" edge="1" parent="1" source="VriNDaEBPL0u4JMVygCb-6" target="VriNDaEBPL0u4JMVygCb-1">
          <mxGeometry width="50" height="50" relative="1" as="geometry">
            <mxPoint x="330" y="340" as="sourcePoint" />
            <mxPoint x="380" y="290" as="targetPoint" />
            <Array as="points">
              <mxPoint x="380" y="340" />
            </Array>
          </mxGeometry>
        </mxCell>
        <mxCell id="VriNDaEBPL0u4JMVygCb-26" value="" style="curved=1;endArrow=classic;html=1;rounded=0;entryX=1;entryY=1;entryDx=0;entryDy=0;exitX=0;exitY=1;exitDx=0;exitDy=0;fillColor=#f0a30a;strokeColor=#BD7000;fontFamily=Comic Sans MS;" edge="1" parent="1">
          <mxGeometry width="50" height="50" relative="1" as="geometry">
            <mxPoint x="564" y="230" as="sourcePoint" />
            <mxPoint x="450" y="230" as="targetPoint" />
            <Array as="points">
              <mxPoint x="530" y="180" />
            </Array>
          </mxGeometry>
        </mxCell>
        <mxCell id="VriNDaEBPL0u4JMVygCb-27" value="" style="curved=1;endArrow=classic;html=1;rounded=0;entryX=0;entryY=1;entryDx=0;entryDy=0;exitX=1;exitY=1;exitDx=0;exitDy=0;fillColor=#f0a30a;strokeColor=#BD7000;fontFamily=Comic Sans MS;" edge="1" parent="1" source="VriNDaEBPL0u4JMVygCb-6" target="VriNDaEBPL0u4JMVygCb-3">
          <mxGeometry width="50" height="50" relative="1" as="geometry">
            <mxPoint x="440" y="335" as="sourcePoint" />
            <mxPoint x="562" y="342" as="targetPoint" />
            <Array as="points">
              <mxPoint x="480" y="340" />
            </Array>
          </mxGeometry>
        </mxCell>
        <mxCell id="VriNDaEBPL0u4JMVygCb-28" value="Color sensor detect our sample" style="text;html=1;align=center;verticalAlign=middle;whiteSpace=wrap;rounded=0;fontFamily=Comic Sans MS;" vertex="1" parent="1">
          <mxGeometry x="270" y="170" width="120" height="30" as="geometry" />
        </mxCell>
        <mxCell id="VriNDaEBPL0u4JMVygCb-29" value="Clearing brush" style="ellipse;whiteSpace=wrap;html=1;aspect=fixed;fillColor=#f0a30a;strokeColor=#BD7000;fontColor=#000000;fontFamily=Comic Sans MS;" vertex="1" parent="1">
          <mxGeometry x="70" y="220" width="80" height="80" as="geometry" />
        </mxCell>
        <mxCell id="VriNDaEBPL0u4JMVygCb-30" value="" style="curved=1;endArrow=classic;html=1;rounded=0;entryX=1;entryY=1;entryDx=0;entryDy=0;exitX=0.5;exitY=1;exitDx=0;exitDy=0;fillColor=#f0a30a;strokeColor=#BD7000;fontFamily=Comic Sans MS;" edge="1" parent="1" source="VriNDaEBPL0u4JMVygCb-1">
          <mxGeometry width="50" height="50" relative="1" as="geometry">
            <mxPoint x="234" y="300" as="sourcePoint" />
            <mxPoint x="120" y="300" as="targetPoint" />
            <Array as="points">
              <mxPoint x="222" y="352" />
            </Array>
          </mxGeometry>
        </mxCell>
        <mxCell id="VriNDaEBPL0u4JMVygCb-33" value="Color sensor detect opponent sample" style="text;html=1;align=center;verticalAlign=middle;whiteSpace=wrap;rounded=0;fontFamily=Comic Sans MS;" vertex="1" parent="1">
          <mxGeometry x="120" y="330" width="120" height="30" as="geometry" />
        </mxCell>
        <mxCell id="VriNDaEBPL0u4JMVygCb-34" value="" style="curved=1;endArrow=classic;html=1;rounded=0;entryX=0;entryY=0;entryDx=0;entryDy=0;exitX=0.5;exitY=0;exitDx=0;exitDy=0;fillColor=#f0a30a;strokeColor=#BD7000;fontFamily=Comic Sans MS;" edge="1" parent="1" source="VriNDaEBPL0u4JMVygCb-29">
          <mxGeometry width="50" height="50" relative="1" as="geometry">
            <mxPoint x="118" y="215" as="sourcePoint" />
            <mxPoint x="240" y="222" as="targetPoint" />
            <Array as="points">
              <mxPoint x="138" y="180" />
            </Array>
          </mxGeometry>
        </mxCell>
        <mxCell id="VriNDaEBPL0u4JMVygCb-36" value="Color sensor detect empty brus" style="text;html=1;align=center;verticalAlign=middle;whiteSpace=wrap;rounded=0;fontFamily=Comic Sans MS;" vertex="1" parent="1">
          <mxGeometry x="120" y="160" width="110" height="30" as="geometry" />
        </mxCell>
      </root>
    </mxGraphModel>
  </diagram>
</mxfile>
